<svg width="63" height="63" viewBox="0 0 63 63" fill="none" xmlns="http://www.w3.org/2000/svg">
<g clip-path="url(#clip0_17_921)">
<rect width="63" height="63" fill="black"/>
<path d="M31.5 0C22.9425 0 21.8741 0.039375 18.5141 0.189C15.1594 0.3465 12.8756 0.874125 10.8675 1.65375C8.79637 2.457 7.03762 3.53587 5.28675 5.28675C3.53587 7.03762 2.45438 8.79375 1.65375 10.8675C0.874125 12.8756 0.343875 15.1594 0.189 18.5141C0.0315 21.8741 0 22.9425 0 31.5C0 40.0575 0.039375 41.1259 0.189 44.4859C0.3465 47.838 0.874125 50.1244 1.65375 52.1325C2.457 54.201 3.53587 55.9624 5.28675 57.7132C7.03762 59.4615 8.79375 60.5456 10.8675 61.3463C12.8782 62.1233 15.162 62.6561 18.5141 62.811C21.8741 62.9685 22.9425 63 31.5 63C40.0575 63 41.1259 62.9606 44.4859 62.811C47.838 62.6535 50.1244 62.1233 52.1325 61.3463C54.201 60.543 55.9624 59.4615 57.7132 57.7132C59.4615 55.9624 60.5456 54.2089 61.3463 52.1325C62.1233 50.1244 62.6561 47.838 62.811 44.4859C62.9685 41.1259 63 40.0575 63 31.5C63 22.9425 62.9606 21.8741 62.811 18.5141C62.6535 15.162 62.1233 12.873 61.3463 10.8675C60.543 8.79637 59.4615 7.03762 57.7132 5.28675C55.9624 3.53587 54.2089 2.45438 52.1325 1.65375C50.1244 0.874125 47.838 0.343875 44.4859 0.189C41.1259 0.0315 40.0575 0 31.5 0ZM31.5 5.67C39.9079 5.67 40.9106 5.712 44.2313 5.85637C47.3025 6.00075 48.9694 6.51 50.0771 6.94575C51.5524 7.51537 52.5971 8.19788 53.7049 9.29775C54.8047 10.4003 55.4872 11.4476 56.0569 12.9229C56.4874 14.0306 57.0019 15.6975 57.141 18.7688C57.2906 22.092 57.3247 23.0895 57.3247 31.5C57.3247 39.9105 57.2854 40.9106 57.1305 44.2313C56.9704 47.3025 56.4585 48.9694 56.0254 50.0771C55.4374 51.5524 54.768 52.5971 53.6655 53.7049C52.5656 54.8047 51.5025 55.4872 50.043 56.0569C48.9405 56.4874 47.2474 57.0019 44.1761 57.141C40.8319 57.2906 39.8475 57.3247 31.4213 57.3247C22.9924 57.3247 22.008 57.2854 18.6664 57.1305C15.5925 56.9704 13.8994 56.4585 12.7969 56.0254C11.3033 55.4374 10.2769 54.768 9.177 53.6655C8.07188 52.5656 7.36575 51.5025 6.8145 50.043C6.38137 48.9405 5.87213 47.2474 5.712 44.1761C5.59388 40.8686 5.55188 39.8475 5.55188 31.4606C5.55188 23.0711 5.59388 22.0474 5.712 18.7005C5.87213 15.6293 6.38137 13.9387 6.8145 12.8362C7.36575 11.34 8.07188 10.3162 9.177 9.21113C10.2769 8.11125 11.3033 7.4025 12.7969 6.85388C13.8994 6.41813 15.5558 5.90625 18.627 5.74875C21.9739 5.63063 22.9583 5.59125 31.3819 5.59125L31.5 5.67ZM31.5 15.3247C22.5619 15.3247 15.3247 22.5697 15.3247 31.5C15.3247 40.4381 22.5697 47.6753 31.5 47.6753C40.4381 47.6753 47.6753 40.4302 47.6753 31.5C47.6753 22.5619 40.4302 15.3247 31.5 15.3247ZM31.5 42C25.6987 42 21 37.3013 21 31.5C21 25.6987 25.6987 21 31.5 21C37.3013 21 42 25.6987 42 31.5C42 37.3013 37.3013 42 31.5 42ZM52.0958 14.6869C52.0958 16.7738 50.4 18.4669 48.3158 18.4669C46.2289 18.4669 44.5357 16.7711 44.5357 14.6869C44.5357 12.6026 46.2315 10.9095 48.3158 10.9095C50.3974 10.9069 52.0958 12.6026 52.0958 14.6869Z" fill="white"/>
</g>
<defs>
<clipPath id="clip0_17_921">
<rect width="63" height="63" fill="white"/>
</clipPath>
</defs>
</svg>
