<svg width="63" height="63" viewBox="0 0 63 63" fill="none" xmlns="http://www.w3.org/2000/svg">
<g clip-path="url(#clip0_17_924)">
<path d="M45.9322 37.7528C45.1421 37.359 41.2939 35.4769 40.5773 35.217C39.8606 34.9519 39.3356 34.8232 38.8106 35.6107C38.2935 36.3851 36.7868 38.1413 36.3326 38.661C35.8732 39.1729 35.4165 39.2122 34.6369 38.8579C33.8494 38.4641 31.3215 37.6372 28.329 34.9598C25.998 32.8729 24.4335 30.3135 23.9715 29.526C23.5147 28.7385 23.9216 28.3054 24.3127 27.9116C24.6698 27.5573 25.1029 27.006 25.4966 26.5387C25.8799 26.0636 26.0059 25.7486 26.2763 25.2368C26.5387 24.6855 26.4049 24.2524 26.2106 23.8612C26.0137 23.4675 24.4466 19.6087 23.7904 18.0705C23.1604 16.5375 22.512 16.7318 22.0264 16.7318C21.5749 16.6924 21.0525 16.6924 20.5275 16.6924C20.0025 16.6924 19.1546 16.8866 18.4354 17.6348C17.7188 18.4223 15.6923 20.3123 15.6923 24.1316C15.6923 27.951 18.501 31.6522 18.8921 32.2035C19.2833 32.7154 24.4177 40.5904 32.2796 43.9766C34.1539 44.7641 35.6134 45.2366 36.7526 45.6278C38.6269 46.2236 40.3358 46.1396 41.6876 45.9454C43.1944 45.7065 46.326 44.0527 46.9796 42.2021C47.649 40.3515 47.649 38.8159 47.4521 38.4615C47.2579 38.1071 46.7434 37.9103 45.9559 37.5559M31.6601 57.0938H31.6181C26.9719 57.0938 22.3676 55.8338 18.3487 53.4713L17.4037 52.9095L7.56 55.4689L10.1981 45.9007L9.57075 44.9164C6.972 40.7794 5.59125 36.015 5.59125 31.1089C5.59125 16.8157 17.2856 5.16075 31.689 5.16075C38.6558 5.16075 45.1946 7.87762 50.1191 12.7995C55.041 17.6794 57.7553 24.2183 57.7553 31.1483C57.7448 45.4388 46.0478 57.0964 31.6759 57.0964M53.865 9.05363C47.88 3.26812 40.005 0 31.6181 0C14.3404 0 0.273 14.0017 0.265125 31.2191C0.265125 36.7211 1.70625 42.0866 4.452 46.8247L0 63L16.6294 58.6635C21.2126 61.1389 26.3681 62.454 31.6181 62.4619H31.6339C48.9195 62.4619 62.9921 48.4549 63 31.2349C63 22.8979 59.745 15.0518 53.8256 9.156" fill="#FFFDFD"/>
</g>
<defs>
<clipPath id="clip0_17_924">
<rect width="63" height="63" fill="white"/>
</clipPath>
</defs>
</svg>
